<svg width="24" height="19" viewBox="0 0 24 19" fill="none" xmlns="http://www.w3.org/2000/svg">
<g clip-path="url(#clip0_963_2556)">
<path d="M8.625 12.4738H4.875L3.375 0.588379H10.125L8.625 12.4738Z" fill="#FF5A79"/>
<path d="M6.7498 18.2399C8.34453 18.2399 9.6373 17.2389 9.6373 16.0041C9.6373 14.7692 8.34453 13.7682 6.7498 13.7682C5.15508 13.7682 3.8623 14.7692 3.8623 16.0041C3.8623 17.2389 5.15508 18.2399 6.7498 18.2399Z" fill="#FF5A79"/>
<path d="M19.125 12.4738H15.375L13.875 0.588379H20.625L19.125 12.4738Z" fill="#FF5A79"/>
<path d="M17.2498 18.2399C18.8445 18.2399 20.1373 17.2389 20.1373 16.0041C20.1373 14.7692 18.8445 13.7682 17.2498 13.7682C15.6551 13.7682 14.3623 14.7692 14.3623 16.0041C14.3623 17.2389 15.6551 18.2399 17.2498 18.2399Z" fill="#FF5A79"/>
</g>
<defs>
<clipPath id="clip0_963_2556">
<rect width="24" height="18.8284" fill="white"/>
</clipPath>
</defs>
</svg>
