<svg width="280" height="280" viewBox="0 0 280 280" fill="none" xmlns="http://www.w3.org/2000/svg">
	<g id="cycle_white">
		<g filter="url(#filter0_d_896_640)">
			<path d="M265 140C265 209.036 209.036 265 140 265C70.9644 265 15 209.036 15 140C15 70.9644 70.9644 15 140 15C209.036 15 265 70.9644 265 140ZM20 140C20 206.274 73.7258 260 140 260C206.274 260 260 206.274 260 140C260 73.7258 206.274 20 140 20C73.7258 20 20 73.7258 20 140Z" fill="white"/>
		</g>
		<g filter="url(#filter1_d_896_640)">
			<path d="M248.253 202.5C259.224 183.498 265 161.942 265 140C265 118.058 259.224 96.5024 248.253 77.5L234.18 85.625C243.725 102.157 248.75 120.91 248.75 140C248.75 159.09 243.725 177.843 234.18 194.375L248.253 202.5Z" fill="white"/>
		</g>
		<g filter="url(#filter2_d_896_640)">
			<path d="M31.7468 77.5C20.7758 96.5024 15 118.058 15 140C15 161.942 20.7758 183.498 31.7468 202.5L45.8197 194.375C36.2749 177.843 31.25 159.09 31.25 140C31.25 120.91 36.2749 102.157 45.8197 85.625L31.7468 77.5Z" fill="white"/>
		</g>
	</g>
	<defs>
		<filter id="filter0_d_896_640" x="0" y="0" width="280" height="280" filterUnits="userSpaceOnUse" color-interpolation-filters="sRGB">
			<feFlood flood-opacity="0" result="BackgroundImageFix"/>
			<feColorMatrix in="SourceAlpha" type="matrix" values="0 0 0 0 0 0 0 0 0 0 0 0 0 0 0 0 0 0 127 0" result="hardAlpha"/>
				<feOffset/>
				<feGaussianBlur stdDeviation="7.5"/>
				<feComposite in2="hardAlpha" operator="out"/>
			<feColorMatrix type="matrix" values="0 0 0 0 1 0 0 0 0 1 0 0 0 0 1 0 0 0 0.4 0"/>
			<feBlend mode="normal" in2="BackgroundImageFix" result="effect1_dropShadow_896_640"/>
			<feBlend mode="normal" in="SourceGraphic" in2="effect1_dropShadow_896_640" result="shape"/>
		</filter>
		<filter id="filter1_d_896_640" x="219.181" y="62.5" width="60.8193" height="155" filterUnits="userSpaceOnUse" color-interpolation-filters="sRGB">
			<feFlood flood-opacity="0" result="BackgroundImageFix"/>
			<feColorMatrix in="SourceAlpha" type="matrix" values="0 0 0 0 0 0 0 0 0 0 0 0 0 0 0 0 0 0 127 0" result="hardAlpha"/>
			<feOffset/>
			<feGaussianBlur stdDeviation="7.5"/>
			<feComposite in2="hardAlpha" operator="out"/>
			<feColorMatrix type="matrix" values="0 0 0 0 1 0 0 0 0 1 0 0 0 0 1 0 0 0 0.4 0"/>
			<feBlend mode="normal" in2="BackgroundImageFix" result="effect1_dropShadow_896_640"/>
			<feBlend mode="normal" in="SourceGraphic" in2="effect1_dropShadow_896_640" result="shape"/>
		</filter>
		<filter id="filter2_d_896_640" x="0" y="62.5" width="60.8193" height="155" filterUnits="userSpaceOnUse" color-interpolation-filters="sRGB">
			<feFlood flood-opacity="0" result="BackgroundImageFix"/>
			<feColorMatrix in="SourceAlpha" type="matrix" values="0 0 0 0 0 0 0 0 0 0 0 0 0 0 0 0 0 0 127 0" result="hardAlpha"/>
			<feOffset/>
			<feGaussianBlur stdDeviation="7.5"/>
			<feComposite in2="hardAlpha" operator="out"/>
			<feColorMatrix type="matrix" values="0 0 0 0 1 0 0 0 0 1 0 0 0 0 1 0 0 0 0.4 0"/>
			<feBlend mode="normal" in2="BackgroundImageFix" result="effect1_dropShadow_896_640"/>
			<feBlend mode="normal" in="SourceGraphic" in2="effect1_dropShadow_896_640" result="shape"/>
		</filter>
	</defs>
</svg>
