<svg width="40" height="40" viewBox="0 0 40 40" fill="none" xmlns="http://www.w3.org/2000/svg">
<path d="M30.9825 0H9.0175C4.03727 0 0 4.03727 0 9.0175V30.9825C0 35.9627 4.03727 40 9.0175 40H30.9825C35.9627 40 40 35.9627 40 30.9825V9.0175C40 4.03727 35.9627 0 30.9825 0Z" fill="#06C755"/>
<path d="M33.3327 18.115C33.3327 12.1475 27.3502 7.29248 19.9964 7.29248C12.6427 7.29248 6.66016 12.1475 6.66016 18.115C6.66016 23.465 11.4052 27.945 17.8139 28.7925C18.2477 28.8862 18.8389 29.0787 18.9889 29.45C19.1239 29.7875 19.0764 30.315 19.0327 30.6562C19.0327 30.6562 18.8764 31.5975 18.8427 31.7975C18.7839 32.135 18.5752 33.1162 19.9977 32.5162C21.4214 31.9162 27.6777 27.9937 30.4752 24.7737C32.4077 22.6537 33.3339 20.5037 33.3339 18.115H33.3327Z" fill="white"/>
<path d="M28.8948 21.5614H25.1486C25.0073 21.5614 24.8936 21.4477 24.8936 21.3064V21.3027V15.4927V15.4864C24.8936 15.3452 25.0073 15.2314 25.1486 15.2314H28.8948C29.0348 15.2314 29.1498 15.3464 29.1498 15.4864V16.4327C29.1498 16.5739 29.0361 16.6877 28.8948 16.6877H26.3486V17.6702H28.8948C29.0348 17.6702 29.1498 17.7852 29.1498 17.9252V18.8714C29.1498 19.0127 29.0361 19.1264 28.8948 19.1264H26.3486V20.1089H28.8948C29.0348 20.1089 29.1498 20.2239 29.1498 20.3639V21.3102C29.1498 21.4514 29.0361 21.5652 28.8948 21.5652V21.5614Z" fill="#06C755"/>
<path d="M15.0362 21.5612C15.1762 21.5612 15.2912 21.4475 15.2912 21.3062V20.36C15.2912 20.22 15.1762 20.105 15.0362 20.105H12.4899V15.485C12.4899 15.345 12.3749 15.23 12.2349 15.23H11.2887C11.1474 15.23 11.0337 15.3437 11.0337 15.485V21.3012V21.3062C11.0337 21.4475 11.1474 21.5612 11.2887 21.5612H15.0349H15.0362Z" fill="#06C755"/>
<path d="M17.2913 15.2314H16.3463C16.2055 15.2314 16.0913 15.3456 16.0913 15.4864V21.3064C16.0913 21.4473 16.2055 21.5614 16.3463 21.5614H17.2913C17.4321 21.5614 17.5463 21.4473 17.5463 21.3064V15.4864C17.5463 15.3456 17.4321 15.2314 17.2913 15.2314Z" fill="#06C755"/>
<path d="M23.7298 15.2314H22.7836C22.6423 15.2314 22.5286 15.3452 22.5286 15.4864V18.9427L19.8661 15.3464C19.8598 15.3377 19.8523 15.3289 19.8461 15.3202H19.8448C19.8398 15.3127 19.8348 15.3077 19.8298 15.3027L19.8248 15.2989C19.8248 15.2989 19.8161 15.2914 19.8111 15.2877C19.8086 15.2864 19.8061 15.2839 19.8036 15.2827C19.7998 15.2789 19.7948 15.2764 19.7898 15.2739C19.7873 15.2727 19.7848 15.2702 19.7823 15.2689C19.7773 15.2664 19.7736 15.2639 19.7686 15.2614C19.7661 15.2602 19.7636 15.2589 19.7611 15.2577C19.7561 15.2552 19.7511 15.2527 19.7461 15.2514L19.7373 15.2489C19.7373 15.2489 19.7273 15.2452 19.7223 15.2439C19.7198 15.2439 19.7161 15.2427 19.7136 15.2414C19.7086 15.2414 19.7036 15.2389 19.6986 15.2377C19.6948 15.2377 19.6911 15.2377 19.6873 15.2364C19.6823 15.2364 19.6786 15.2352 19.6736 15.2352C19.6686 15.2352 19.6648 15.2352 19.6598 15.2352C19.6573 15.2352 19.6536 15.2352 19.6511 15.2352H18.7111C18.5711 15.2352 18.4561 15.3489 18.4561 15.4902V21.3102C18.4561 21.4502 18.5698 21.5652 18.7111 21.5652H19.6573C19.7986 21.5652 19.9123 21.4514 19.9123 21.3102V17.8539L22.5786 21.4552C22.5973 21.4814 22.6198 21.5027 22.6448 21.5189L22.6473 21.5214C22.6473 21.5214 22.6573 21.5277 22.6636 21.5314C22.6661 21.5327 22.6686 21.5339 22.6711 21.5352C22.6748 21.5377 22.6798 21.5389 22.6836 21.5414C22.6873 21.5439 22.6923 21.5452 22.6961 21.5464C22.6986 21.5464 22.7011 21.5489 22.7036 21.5489C22.7098 21.5514 22.7148 21.5527 22.7211 21.5539H22.7248C22.7461 21.5602 22.7686 21.5639 22.7911 21.5639H23.7311C23.8711 21.5639 23.9861 21.4502 23.9861 21.3089V15.4889C23.9861 15.3489 23.8723 15.2339 23.7311 15.2339L23.7298 15.2314Z" fill="#06C755"/>
</svg>
