<svg width="150" height="12" viewBox="0 0 150 12" fill="none" xmlns="http://www.w3.org/2000/svg">
<path d="M8.04064 10.2848H4.06355C3.39267 10.2848 2.786 10.0385 2.36229 9.58798C1.93216 9.13441 1.74278 8.53666 1.82623 7.90287L2.34945 3.9229C2.51958 2.61626 3.75219 1.59198 5.1485 1.59198H9.18016L8.92016 3.56845H10.6407L11.074 0.270329H4.58034C2.66723 0.267326 0.914616 1.72715 0.680292 3.5234L0.0254684 8.50662C-0.0836689 9.34467 0.160285 10.1287 0.712391 10.7144C1.25808 11.2911 2.04451 11.6095 2.93045 11.6095H9.58782L10.0212 8.31138H8.30064L8.04064 10.2879V10.2848Z" fill="black"/>
<path d="M7.36963 5.19049L7.17383 6.68636H11.3531L11.5489 5.19049H7.36963Z" fill="black"/>
<path d="M23.535 1.9134L23.7469 0.294373H14.4831L12.9937 11.6365H22.2607L22.4725 10.0055H14.8875L15.3176 6.72241H21.3523L21.5673 5.08836H15.5327L15.95 1.9134H23.535Z" fill="black"/>
<path d="M26.9533 0.294373L25.4639 11.6366H27.2711L28.7572 0.294373H26.9533Z" fill="black"/>
<path d="M34.5354 6.05557C34.574 5.75519 34.8019 5.43379 35.1935 5.13041L40.2684 1.21051L39.1962 0L34.1117 4.004C33.7362 4.29837 33.4344 4.61677 33.2162 4.94718L33.826 0.294368H32.1344L30.645 11.6395H32.3366L32.9305 7.10989C33.0781 7.46133 33.3253 7.78874 33.6623 8.06808L38.3007 12L39.6167 10.7835L34.9527 6.90864C34.6382 6.65332 34.4937 6.35895 34.5322 6.05557H34.5354Z" fill="black"/>
<path d="M51.3359 1.16246C50.7966 0.591748 50.0038 0.279358 49.105 0.279358H45.9304C44.104 0.279358 42.56 1.54394 42.3385 3.22304L41.6291 8.61778C41.5232 9.4348 41.7543 10.1948 42.2871 10.7595C42.8232 11.3272 43.6161 11.6396 44.518 11.6396H47.6638C49.4998 11.6396 51.0502 10.369 51.2717 8.68386L51.9811 3.28912C52.087 2.4751 51.8591 1.72116 51.3359 1.16547V1.16246ZM50.2156 3.30113L49.5255 8.54869C49.4164 9.36872 48.6524 9.98749 47.744 9.98749H44.7395C44.303 9.98749 43.9306 9.84632 43.6867 9.58799C43.4491 9.33568 43.3464 8.99025 43.3946 8.61177L44.0847 3.36421C44.1938 2.52917 44.9385 1.92542 45.8534 1.92542H48.8867C49.3265 1.92542 49.6988 2.06659 49.9396 2.32191C50.1739 2.56822 50.267 2.90764 50.2156 3.30113Z" fill="black"/>
<path d="M60.0093 3.37924C60.1217 2.52317 60.8728 1.92542 61.8358 1.92542H67.8287L68.0438 0.291382H61.9257C60.0511 0.291382 58.4686 1.57398 58.2439 3.27411L58.1957 3.64658C58.0834 4.49363 58.3209 5.27161 58.857 5.83932C59.3995 6.41604 60.218 6.73143 61.1617 6.73143H64.4069C64.8563 6.73143 65.2287 6.87261 65.479 7.13694C65.7294 7.40427 65.8386 7.78275 65.784 8.20327L65.7423 8.52167C65.6267 9.41078 64.9013 9.9875 63.8998 9.9875H57.6789L57.4639 11.6215H63.797C65.6716 11.6215 67.2541 10.3329 67.4788 8.6238L67.527 8.26335C67.6393 7.40127 67.3954 6.59927 66.8336 6.00753C66.2847 5.4278 65.4855 5.1094 64.5835 5.1094H61.3671C60.8728 5.1094 60.4844 4.97123 60.2405 4.71291C60.0093 4.4666 59.9162 4.11817 59.9708 3.70665L60.0158 3.37323L60.0093 3.37924Z" fill="black"/>
<path d="M79.1596 1.13843C78.6363 0.585741 77.8692 0.279358 77.0025 0.279358H74.1681C72.3802 0.279358 70.8009 1.61903 70.5762 3.32817L69.4849 11.6366H71.2343L71.7607 7.62654H77.5257L76.9993 11.6366H78.7487L79.8336 3.37923C79.946 2.51715 79.7052 1.72416 79.1531 1.13843H79.1596ZM78.0907 3.38224L77.744 6.01953H71.979L72.316 3.45733C72.4284 2.58925 73.2116 1.9104 74.0975 1.9104H76.7874C77.1983 1.9104 77.5418 2.04256 77.7793 2.29187C78.0329 2.56221 78.1484 2.95871 78.0939 3.37923L78.0907 3.38224Z" fill="black"/>
<path d="M83.6662 0.294373L82.1768 11.6366H83.9839L85.4701 0.294373H83.6662Z" fill="black"/>
<path d="M102.014 1.2015C101.452 0.606754 100.579 0.282349 99.5554 0.282349H93.8032L93.5913 1.88936H99.3114C99.9084 1.88936 100.374 2.04856 100.663 2.35194C100.916 2.61927 101.019 3.00075 100.961 3.45131L100.894 3.95894C100.766 4.93817 99.8956 5.59899 98.7304 5.59899H96.3262C94.1434 5.59899 92.8948 6.68035 92.6155 8.81001L92.2432 11.6425H101.565L101.777 10.0235H94.1755L94.3168 8.95419C94.4612 7.85181 94.8496 7.16695 96.3294 7.16695H98.7079C100.746 7.16695 102.332 5.91139 102.569 4.11814L102.663 3.41226C102.778 2.53817 102.553 1.77521 102.017 1.20751L102.014 1.2015Z" fill="black"/>
<path d="M113.881 1.15345C113.348 0.588745 112.559 0.279358 111.654 0.279358H108.466C106.64 0.279358 105.096 1.53793 104.877 3.20802L104.165 8.6298C104.059 9.44381 104.29 10.1978 104.816 10.7535C105.352 11.3212 106.155 11.6335 107.07 11.6335H110.215C112.042 11.6335 113.586 10.369 113.807 8.68987L114.52 3.26809C114.626 2.45107 114.401 1.69713 113.884 1.15045L113.881 1.15345ZM112.764 3.30414L112.077 8.53968C111.968 9.36271 111.172 10.0055 110.264 10.0055H107.317C106.874 10.0055 106.486 9.85533 106.226 9.57898C105.978 9.31766 105.869 8.97222 105.917 8.60276L106.604 3.36722C106.729 2.40602 107.612 1.90139 108.418 1.90139H111.406C111.849 1.90139 112.228 2.04557 112.478 2.3099C112.716 2.56221 112.816 2.90764 112.764 3.30414Z" fill="black"/>
<path d="M125.392 1.2015C124.83 0.606754 123.957 0.282349 122.933 0.282349H117.181L116.969 1.88936H122.689C123.286 1.88936 123.752 2.04856 124.041 2.35194C124.294 2.61927 124.397 3.00075 124.339 3.45131L124.272 3.95894C124.143 4.93817 123.274 5.59899 122.108 5.59899H119.704C117.521 5.59899 116.273 6.68035 115.993 8.81001L115.621 11.6425H124.943L125.155 10.0235H117.553L117.695 8.95419C117.839 7.85181 118.228 7.16695 119.707 7.16695H122.086C124.124 7.16695 125.71 5.91139 125.947 4.11814L126.04 3.41226C126.156 2.53817 125.931 1.77521 125.395 1.20751L125.392 1.2015Z" fill="black"/>
<path d="M136.913 1.2015C136.351 0.606754 135.478 0.282349 134.454 0.282349H128.702L128.49 1.88936H134.21C134.807 1.88936 135.272 2.04856 135.561 2.35194C135.815 2.61927 135.918 3.00075 135.86 3.45131L135.792 3.95894C135.664 4.93817 134.794 5.59899 133.629 5.59899H131.225C129.042 5.59899 127.793 6.68035 127.514 8.81001L127.142 11.6425H136.463L136.675 10.0235H129.074L129.215 8.95419C129.36 7.85181 129.748 7.16695 131.228 7.16695H133.606C135.645 7.16695 137.23 5.91139 137.468 4.11814L137.561 3.41226C137.677 2.53817 137.452 1.77521 136.916 1.20751L136.913 1.2015Z" fill="black"/>
</svg>
