<svg width="28" height="34" viewBox="0 0 28 34" fill="none" xmlns="http://www.w3.org/2000/svg">
<path d="M4.74397 10.744C4.38859 10.3886 4.38675 9.8099 4.76445 9.47836C6.72527 7.75718 9.13334 6.61396 11.7195 6.18699C14.6056 5.71049 17.5685 6.14999 20.192 7.44378C22.8156 8.73757 24.968 10.8206 26.3469 13.4004C27.7258 15.9802 28.262 18.9272 27.8802 21.8274C27.4984 24.7275 26.2177 27.4353 24.2181 29.5703C22.2184 31.7053 19.6003 33.1603 16.7313 33.731C13.8623 34.3017 10.8866 33.9593 8.2221 32.7521C5.83461 31.6703 3.80448 29.9428 2.35595 27.7728C2.07692 27.3548 2.22848 26.7963 2.66373 26.545V26.545C3.09897 26.2937 3.65275 26.4451 3.93583 26.8604C5.19137 28.7023 6.93221 30.1695 8.97323 31.0943C11.2913 32.1446 13.8802 32.4425 16.3762 31.946C18.8722 31.4495 21.1501 30.1836 22.8897 28.3262C24.6294 26.4687 25.7436 24.113 26.0758 21.5898C26.408 19.0666 25.9415 16.5028 24.7418 14.2584C23.5421 12.014 21.6696 10.2017 19.3871 9.07609C17.1046 7.95049 14.5269 7.56813 12.0159 7.98268C9.8051 8.34769 7.74384 9.31437 6.05435 10.7686C5.67344 11.0964 5.09935 11.0994 4.74397 10.744V10.744Z" fill="white"/>
<path d="M3.02083 10.1907C2.84872 10.7155 3.13462 11.2804 3.6594 11.4525L12.2112 14.2572C12.736 14.4293 13.301 14.1434 13.4731 13.6186C13.6452 13.0939 13.3593 12.5289 12.8345 12.3568L5.23286 9.86375L7.72592 2.26212C7.89802 1.73734 7.61213 1.1724 7.08734 1.00029C6.56256 0.82818 5.99762 1.11408 5.82551 1.63886L3.02083 10.1907ZM4.41174 9.15853L3.51949 9.61007L4.42257 11.3946L5.31482 10.943L4.41174 9.15853Z" fill="white"/>
</svg>
