<svg width="468" height="40" viewBox="0 0 468 40" fill="none" xmlns="http://www.w3.org/2000/svg">
<path d="M25.0493 34.24H12.6593C10.5693 34.24 8.67934 33.42 7.35934 31.92C6.01934 30.41 5.42934 28.42 5.68934 26.31L7.31934 13.06C7.84934 8.71004 11.6893 5.30004 16.0393 5.30004H28.5993L27.7893 11.88H33.1493L34.4993 0.90004H14.2693C8.30934 0.89004 2.84934 5.75004 2.11934 11.73L0.0793427 28.32C-0.260657 31.11 0.499343 33.72 2.21934 35.67C3.91934 37.59 6.36934 38.65 9.12934 38.65H29.8693L31.2193 27.67H25.8593L25.0493 34.25V34.24Z" fill="black"/>
<path d="M22.9591 17.28L22.3491 22.26H35.3691L35.9791 17.28H22.9591Z" fill="black"/>
<path d="M73.3195 6.36998L73.9795 0.97998H45.1195L40.4795 38.74H69.3495L70.0095 33.31H46.3795L47.7195 22.38H66.5195L67.1895 16.94H48.3895L49.6895 6.36998H73.3195Z" fill="black"/>
<path d="M83.9691 0.97998L79.3291 38.74H84.9591L89.5891 0.97998H83.9691Z" fill="black"/>
<path d="M107.589 20.16C107.709 19.16 108.419 18.09 109.639 17.08L125.449 4.03L122.109 0L106.269 13.33C105.099 14.31 104.159 15.37 103.479 16.47L105.379 0.98H100.109L95.4692 38.75H100.739L102.589 23.67C103.049 24.84 103.819 25.93 104.869 26.86L119.319 39.95L123.419 35.9L108.889 23C107.909 22.15 107.459 21.17 107.579 20.16H107.589Z" fill="black"/>
<path d="M159.93 3.86993C158.25 1.96993 155.78 0.929932 152.98 0.929932H143.09C137.4 0.929932 132.59 5.13993 131.9 10.7299L129.69 28.6899C129.36 31.4099 130.08 33.9399 131.74 35.8199C133.41 37.7099 135.88 38.7499 138.69 38.7499H148.49C154.21 38.7499 159.04 34.5199 159.73 28.9099L161.94 10.9499C162.27 8.23993 161.56 5.72993 159.93 3.87993V3.86993ZM156.44 10.9899L154.29 28.4599C153.95 31.1899 151.57 33.2499 148.74 33.2499H139.38C138.02 33.2499 136.86 32.7799 136.1 31.9199C135.36 31.0799 135.04 29.9299 135.19 28.6699L137.34 11.1999C137.68 8.41993 140 6.40993 142.85 6.40993H152.3C153.67 6.40993 154.83 6.87993 155.58 7.72993C156.31 8.54993 156.6 9.67993 156.44 10.9899Z" fill="black"/>
<path d="M195.089 0.839956L191.709 28.33C191.369 31.09 188.849 33.25 185.969 33.25H178.029C176.639 33.25 175.429 32.75 174.629 31.85C173.859 30.98 173.519 29.8 173.679 28.54L177.079 0.879956H171.579L168.189 28.46C167.859 31.17 168.619 33.72 170.319 35.65C172.049 37.61 174.559 38.69 177.389 38.69H185.679C191.329 38.69 196.479 34.19 197.159 28.67L200.579 0.829956H195.089V0.839956Z" fill="black"/>
<path d="M225.609 11.25C225.959 8.39997 228.299 6.40997 231.299 6.40997H249.969L250.639 0.969971H231.579C225.739 0.969971 220.809 5.23997 220.109 10.9L219.959 12.14C219.609 14.96 220.349 17.55 222.019 19.44C223.709 21.36 226.259 22.41 229.199 22.41H239.309C240.709 22.41 241.869 22.88 242.649 23.76C243.429 24.65 243.769 25.91 243.599 27.31L243.469 28.37C243.109 31.33 240.849 33.25 237.729 33.25H218.349L217.679 38.69H237.409C243.249 38.69 248.179 34.4 248.879 28.71L249.029 27.51C249.379 24.64 248.619 21.97 246.869 20C245.159 18.07 242.669 17.01 239.859 17.01H229.839C228.299 17.01 227.089 16.55 226.329 15.69C225.609 14.87 225.319 13.71 225.489 12.34L225.629 11.23L225.609 11.25Z" fill="black"/>
<path d="M285.269 3.78993C283.639 1.94993 281.249 0.929932 278.549 0.929932H269.719C264.149 0.929932 259.229 5.38993 258.529 11.0799L255.129 38.7399H260.579L262.219 25.3899H280.179L278.539 38.7399H283.989L287.369 11.2499C287.719 8.37993 286.969 5.73993 285.249 3.78993H285.269ZM281.939 11.2599L280.859 20.0399H262.899L263.949 11.5099C264.299 8.61993 266.739 6.35993 269.499 6.35993H277.879C279.159 6.35993 280.229 6.79993 280.969 7.62993C281.759 8.52993 282.119 9.84993 281.949 11.2499L281.939 11.2599Z" fill="black"/>
<path d="M299.309 0.97998L294.669 38.74H300.299L304.929 0.97998H299.309Z" fill="black"/>
<path d="M356.469 3.99994C354.719 2.01994 351.999 0.939941 348.809 0.939941H330.889L330.229 6.28994H348.049C349.909 6.28994 351.359 6.81994 352.259 7.82994C353.049 8.71994 353.369 9.98994 353.189 11.4899L352.979 13.1799C352.579 16.4399 349.869 18.6399 346.239 18.6399H338.749C331.949 18.6399 328.059 22.2399 327.189 29.3299L326.029 38.7599H355.069L355.729 33.3699H332.049L332.489 29.8099C332.939 26.1399 334.149 23.8599 338.759 23.8599H346.169C352.519 23.8599 357.459 19.6799 358.199 13.7099L358.489 11.3599C358.849 8.44994 358.149 5.90994 356.479 4.01994L356.469 3.99994Z" fill="black"/>
<path d="M393.439 3.83993C391.779 1.95993 389.319 0.929932 386.499 0.929932H376.569C370.879 0.929932 366.069 5.11993 365.389 10.6799L363.169 28.7299C362.839 31.4399 363.559 33.9499 365.199 35.7999C366.869 37.6899 369.369 38.7299 372.219 38.7299H382.019C387.709 38.7299 392.519 34.5199 393.209 28.9299L395.429 10.8799C395.759 8.15993 395.059 5.64993 393.449 3.82993L393.439 3.83993ZM389.959 10.9999L387.819 28.4299C387.479 31.1699 384.999 33.3099 382.169 33.3099H372.989C371.609 33.3099 370.399 32.8099 369.589 31.8899C368.819 31.0199 368.479 29.8699 368.629 28.6399L370.769 11.2099C371.159 8.00993 373.909 6.32993 376.419 6.32993H385.729C387.109 6.32993 388.289 6.80993 389.069 7.68993C389.809 8.52993 390.119 9.67993 389.959 10.9999Z" fill="black"/>
<path d="M429.299 3.99994C427.549 2.01994 424.829 0.939941 421.639 0.939941H403.719L403.059 6.28994H420.879C422.739 6.28994 424.189 6.81994 425.089 7.82994C425.879 8.71994 426.199 9.98994 426.019 11.4899L425.809 13.1799C425.409 16.4399 422.699 18.6399 419.069 18.6399H411.579C404.779 18.6399 400.889 22.2399 400.019 29.3299L398.859 38.7599H427.899L428.559 33.3699H404.879L405.319 29.8099C405.769 26.1399 406.979 23.8599 411.589 23.8599H418.999C425.349 23.8599 430.289 19.6799 431.029 13.7099L431.319 11.3599C431.679 8.44994 430.979 5.90994 429.309 4.01994L429.299 3.99994Z" fill="black"/>
<path d="M465.19 3.99994C463.44 2.01994 460.72 0.939941 457.53 0.939941H439.609L438.95 6.28994H456.77C458.63 6.28994 460.08 6.81994 460.98 7.82994C461.77 8.71994 462.09 9.98994 461.91 11.4899L461.7 13.1799C461.3 16.4399 458.59 18.6399 454.96 18.6399H447.47C440.67 18.6399 436.78 22.2399 435.91 29.3299L434.75 38.7599H463.79L464.45 33.3699H440.77L441.21 29.8099C441.66 26.1399 442.87 23.8599 447.48 23.8599H454.89C461.24 23.8599 466.18 19.6799 466.92 13.7099L467.21 11.3599C467.57 8.44994 466.87 5.90994 465.2 4.01994L465.19 3.99994Z" fill="black"/>
</svg>
