<svg width="56" height="50" viewBox="0 0 56 50" fill="none" xmlns="http://www.w3.org/2000/svg">
<path d="M26.5937 49.9992C23.493 49.9992 20.4833 49.3901 17.6488 48.1895C14.912 47.0304 12.4549 45.3709 10.3465 43.2584C8.23722 41.1459 6.58116 38.6849 5.42293 35.9439C4.22427 33.1042 3.61609 30.0906 3.61609 26.9851C3.61609 23.8797 4.22427 20.8661 5.42293 18.0264C6.58032 15.2853 8.23722 12.8244 10.3465 10.7119C12.4557 8.59939 14.9129 6.94077 17.6488 5.78159C18.8736 5.26274 20.1489 4.84935 21.4402 4.55323L22.2666 4.3634V10.4934L21.7814 10.636C19.0766 11.4299 16.5807 12.9172 14.5641 14.9369C11.3506 18.1555 9.58077 22.4345 9.58077 26.986C9.58077 31.5375 11.3506 35.8165 14.5641 39.0351C17.7777 42.2536 22.0501 44.0261 26.5946 44.0261C31.139 44.0261 35.4114 42.2536 38.625 39.0351C41.8386 35.8165 43.6084 31.5375 43.6084 26.986C43.6084 22.4345 41.8386 18.1555 38.625 14.9369C36.6076 12.9155 34.1092 11.4282 31.401 10.6343L30.915 10.4917V4.36509L31.7405 4.55407C33.036 4.85104 34.3139 5.26443 35.5386 5.78327C38.2754 6.94245 40.7317 8.60192 42.841 10.7136C44.9502 12.8261 46.6063 15.287 47.7645 18.0281C48.9632 20.867 49.5714 23.8813 49.5714 26.9868C49.5714 30.0923 48.9632 33.1059 47.7645 35.9456C46.6071 38.6866 44.9511 41.1467 42.841 43.2601C40.7317 45.3726 38.2746 47.0312 35.5386 48.1904C32.7041 49.3909 29.6944 50 26.5937 50V49.9992Z" fill="url(#paint0_radial_493_178)"/>
<path d="M28.8015 0H24.3901V16.0809H28.8015V0Z" fill="url(#paint1_linear_493_178)"/>
<path d="M23.1873 18.1934H21.42C19.4565 18.1934 19.1895 19.2961 18.77 22.6547L17.8973 29.6106C17.616 31.4472 17.2672 34.0896 19.4338 34.0896H21.185C23.1039 34.0896 23.5697 32.7971 23.8452 29.6106L24.7178 22.6547C24.8812 20.3827 25.5846 18.1934 23.1873 18.1934ZM23.1477 22.7576L22.2986 29.5245C22.211 30.2248 21.9111 30.7132 21.5691 30.7132H19.8971C19.5551 30.7132 19.3782 30.2239 19.4658 29.5245L20.3149 22.7576C20.4328 21.8194 20.8236 21.5689 21.0368 21.5689H22.7248C22.9371 21.5689 23.2656 21.8194 23.1485 22.7576H23.1477Z" fill="#E83828"/>
<path d="M29.7787 18.1934H28.0114C26.0479 18.1934 25.7809 19.2961 25.3614 22.6547L24.4887 29.6106C24.2073 31.4472 23.8586 34.0896 26.0251 34.0896H27.7764C29.6953 34.0896 30.1611 32.7971 30.4365 29.6106L31.3092 22.6547C31.4726 20.3827 32.176 18.1934 29.7787 18.1934ZM29.7391 22.7576L28.89 29.5245C28.8024 30.2248 28.5025 30.7132 28.1605 30.7132H26.4884C26.1464 30.7132 25.9695 30.2239 26.0571 29.5245L26.9062 22.7576C27.0242 21.8194 27.415 21.5689 27.6281 21.5689H29.3162C29.5285 21.5689 29.857 21.8194 29.7399 22.7576H29.7391Z" fill="#E83828"/>
<path d="M36.3701 18.1934H34.6028C32.6393 18.1934 32.3723 19.2961 31.9528 22.6547L31.0801 29.6106C30.7988 31.4472 30.45 34.0896 32.6166 34.0896H34.3678C36.2867 34.0896 36.7525 32.7971 37.028 29.6106L37.9006 22.6547C38.064 20.3827 38.7674 18.1934 36.3701 18.1934ZM36.3305 22.7576L35.4814 29.5245C35.3938 30.2248 35.0939 30.7132 34.7519 30.7132H33.0799C32.7379 30.7132 32.561 30.2239 32.6486 29.5245L33.4977 22.7576C33.6156 21.8194 34.0064 21.5689 34.2196 21.5689H35.9076C36.1199 21.5689 36.4484 21.8194 36.3313 22.7576H36.3305Z" fill="#E83828"/>
<path d="M42.9606 18.1934H41.1933C39.2298 18.1934 38.9628 19.2961 38.5433 22.6547L37.6706 29.6106C37.3893 31.4472 37.0406 34.0896 39.2071 34.0896H40.9583C42.8772 34.0896 43.343 32.7971 43.6185 29.6106L44.4912 22.6547C44.6546 20.3827 45.3579 18.1934 42.9606 18.1934ZM42.921 22.7576L42.0719 29.5245C41.9843 30.2248 41.6844 30.7132 41.3424 30.7132H39.6704C39.3284 30.7132 39.1515 30.2239 39.2391 29.5245L40.0882 22.7576C40.2061 21.8194 40.597 21.5689 40.8101 21.5689H42.4981C42.7104 21.5689 43.0389 21.8194 42.9219 22.7576H42.921Z" fill="#E83828"/>
<path d="M50.1652 18.2559L49.6868 21.9907L47.6138 18.2559H45.8145L43.8047 33.9504L43.7819 34.1301H45.6696L47.1151 22.8377L49.1266 26.3718L48.1327 34.1301H50.0204L52.0302 18.4356L52.053 18.2559H50.1652Z" fill="#E83828"/>
<path d="M16.6414 29.5178H8.70813L9.09308 26.3726H17.0272L16.6414 29.5178Z" fill="#E83828"/>
<path d="M49.9075 34.9408L7.14725 34.9011C5.45749 34.9011 4.25546 33.5294 4.46352 31.837L5.27723 25.1983C5.49203 23.4435 7.0866 22.0219 8.83869 22.0219H14.1708L13.8203 24.8811H17.194L18.0237 18.1124L7.95422 18.1884C4.56628 18.1884 1.48244 20.9387 1.06632 24.3318L0.0462317 32.6486C-0.365678 36.0097 2.0207 38.7339 5.37663 38.7339L55.6035 38.6841L49.9075 34.94V34.9408ZM52.7487 37.7713L53.2306 37.8911L52.7487 37.7713Z" fill="#E83828"/>
<defs>
<radialGradient id="paint0_radial_493_178" cx="0" cy="0" r="1" gradientUnits="userSpaceOnUse" gradientTransform="translate(26.5937 27.1817) scale(22.8799 22.9153)">
<stop offset="0.66" stop-color="#30895E"/>
<stop offset="0.75" stop-color="#539E5A"/>
<stop offset="0.86" stop-color="#79B557"/>
<stop offset="0.95" stop-color="#90C355"/>
<stop offset="1" stop-color="#99C955"/>
</radialGradient>
<linearGradient id="paint1_linear_493_178" x1="26.5954" y1="16.0809" x2="26.5954" y2="0" gradientUnits="userSpaceOnUse">
<stop stop-color="#30895E"/>
<stop offset="0.19" stop-color="#469D65"/>
<stop offset="0.43" stop-color="#67BB71"/>
<stop offset="1" stop-color="#99C955"/>
</linearGradient>
</defs>
</svg>
