<svg width="98" height="88" viewBox="0 0 98 88" fill="none" xmlns="http://www.w3.org/2000/svg">
<path d="M46.8712 88C41.3766 88 36.0438 86.9274 31.0199 84.8132C26.1696 82.7714 21.8152 79.8506 18.0784 76.1305C14.3401 72.4104 11.405 68.0787 9.35322 63.252C7.22872 58.2525 6.15088 52.9456 6.15088 47.4778C6.15088 42.0099 7.22872 36.7031 9.35322 31.7035C11.405 26.8783 14.3401 22.5451 18.0784 18.825C21.8167 15.1064 26.1711 12.1841 31.0199 10.1438C33.1904 9.23078 35.45 8.50242 37.7378 7.98089L39.4659 7.58643V18.763L38.4504 19.0585C33.7189 20.4383 29.3526 23.0238 25.8251 26.5341C20.2029 32.129 17.1074 39.5663 17.1074 47.4778C17.1074 55.3893 20.2029 62.8265 25.8251 68.4214C31.4474 74.0163 38.921 77.0967 46.8712 77.0967C54.8214 77.0967 62.295 74.0163 67.9173 68.4214C73.5396 62.8265 76.635 55.3893 76.635 47.4778C76.635 39.5663 73.5396 32.129 67.9173 26.5341C64.3868 23.0208 60.0176 20.4354 55.2801 19.0555L54.2646 18.76V7.58643L55.9913 7.97941C58.288 8.50242 60.552 9.2293 62.7226 10.1438C67.5728 12.1856 71.9258 15.1064 75.664 18.8265C79.4023 22.5451 82.3374 26.8783 84.3892 31.705C86.5137 36.7045 87.5915 42.0129 87.5915 47.4792C87.5915 52.9456 86.5137 58.2539 84.3892 63.2535C82.3374 68.0801 79.4023 72.4134 75.664 76.132C71.9258 79.8521 67.5728 82.7729 62.7226 84.8132C57.6986 86.9274 52.3658 88 46.8712 88ZM39.022 8.14341L37.8387 8.41377C35.5762 8.92938 33.3403 9.64888 31.1936 10.5531C26.3967 12.5727 22.0898 15.461 18.3931 19.1397C14.6964 22.8184 11.7925 27.1044 9.76297 31.8779C7.66223 36.8227 6.59627 42.072 6.59627 47.4807C6.59627 52.8895 7.66223 58.1372 9.76297 63.0821C11.7925 67.8556 14.6949 72.1415 18.3931 75.8203C22.0898 79.499 26.3967 82.3888 31.1936 84.4069C36.1626 86.4975 41.4375 87.5582 46.8727 87.5582C52.3079 87.5582 57.5828 86.4975 62.5503 84.4069C67.3472 82.3873 71.6541 79.499 75.3508 75.8203C79.0475 72.1415 81.9514 67.8556 83.9809 63.0821C86.0817 58.1372 87.1476 52.888 87.1476 47.4807C87.1476 42.0734 86.0817 36.8227 83.9809 31.8779C81.9514 27.1044 79.049 22.8184 75.3523 19.1397C71.6556 15.461 67.3487 12.5712 62.5518 10.5531C60.4051 9.65036 58.1648 8.92938 55.8948 8.41377L54.7115 8.14488V18.4291L55.4078 18.6315C60.2165 20.0321 64.6511 22.6559 68.2335 26.2209C73.9389 31.8986 77.0819 39.4481 77.0819 47.4778C77.0819 55.5075 73.9389 63.0555 68.2335 68.7346C62.5281 74.4123 54.9416 77.54 46.8727 77.54C38.8037 77.54 31.2173 74.4138 25.5119 68.7346C19.8065 63.057 16.665 55.5075 16.665 47.4778C16.665 39.4481 19.808 31.8986 25.5134 26.2209C29.0943 22.6574 33.5259 20.0335 38.3287 18.633L39.0235 18.4306V8.14341H39.022Z" fill="url(#paint0_radial_1065_630)"/>
<path d="M50.985 28.604H42.7646V0H50.985V28.604ZM43.21 28.1608H50.5411V0.443221H43.21V28.1608Z" fill="url(#paint1_linear_1065_630)"/>
<path d="M40.8671 32.0801H37.7524C34.2917 32.0801 33.8211 34.011 33.0818 39.8926L31.5437 52.0738C31.0478 55.2901 30.4332 59.9173 34.2517 59.9173H37.3382C40.7202 59.9173 41.5412 57.6539 42.0266 52.0738L43.5647 39.8926C43.8527 35.9139 45.0924 32.0801 40.8671 32.0801ZM40.7974 40.0728L39.3009 51.9231C39.1465 53.1493 38.6179 54.0047 38.0152 54.0047H35.0682C34.4654 54.0047 34.1537 53.1478 34.3081 51.9231L35.8046 40.0728C36.0124 38.43 36.7013 37.9912 37.0769 37.9912H40.0521C40.4262 37.9912 41.0052 38.43 40.7989 40.0728H40.7974Z" fill="#E83828"/>
<path d="M52.4843 32.0801H49.3696C45.9089 32.0801 45.4383 34.011 44.699 39.8926L43.1609 52.0738C42.665 55.2901 42.0504 59.9173 45.8688 59.9173H48.9554C52.3374 59.9173 53.1584 57.6539 53.6438 52.0738L55.1819 39.8926C55.4699 35.9139 56.7096 32.0801 52.4843 32.0801ZM52.4146 40.0728L50.9181 51.9231C50.7637 53.1493 50.2351 54.0047 49.6324 54.0047H46.6854C46.0826 54.0047 45.7709 53.1478 45.9253 51.9231L47.4218 40.0728C47.6296 38.43 48.3185 37.9912 48.6941 37.9912H51.6693C52.0434 37.9912 52.6224 38.43 52.416 40.0728H52.4146Z" fill="#E83828"/>
<path d="M64.1015 32.0801H60.9868C57.5261 32.0801 57.0555 34.011 56.3161 39.8926L54.7781 52.0738C54.2822 55.2901 53.6676 59.9173 57.486 59.9173H60.5726C63.9545 59.9173 64.7755 57.6539 65.261 52.0738L66.7991 39.8926C67.0871 35.9139 68.3268 32.0801 64.1015 32.0801ZM64.0317 40.0728L62.5352 51.9231C62.3808 53.1493 61.8523 54.0047 61.2496 54.0047H58.3026C57.6998 54.0047 57.388 53.1478 57.5424 51.9231L59.0389 40.0728C59.2468 38.43 59.9357 37.9912 60.3113 37.9912H63.2865C63.6606 37.9912 64.2396 38.43 64.0332 40.0728H64.0317Z" fill="#E83828"/>
<path d="M75.7172 32.0801H72.6025C69.1418 32.0801 68.6712 34.011 67.9319 39.8926L66.3938 52.0738C65.8979 55.2901 65.2833 59.9173 69.1018 59.9173H72.1883C75.5703 59.9173 76.3913 57.6539 76.8767 52.0738L78.4148 39.8926C78.7028 35.9139 79.9425 32.0801 75.7172 32.0801ZM75.6475 40.0728L74.151 51.9231C73.9966 53.1493 73.468 54.0047 72.8653 54.0047H69.9183C69.3155 54.0047 69.0038 53.1478 69.1582 51.9231L70.6547 40.0728C70.8625 38.43 71.5514 37.9912 71.927 37.9912H74.9022C75.2763 37.9912 75.8553 38.43 75.6489 40.0728H75.6475Z" fill="#E83828"/>
<path d="M88.415 32.1895L87.5718 38.7314L83.9181 32.1895H80.747L77.2046 59.6751L77.1646 59.9897H80.4916L83.0392 40.2147L86.5845 46.4021L84.8326 59.9897H88.1597L91.702 32.5056L91.7421 32.1895H88.415Z" fill="#E83828"/>
<path d="M29.3299 51.913H15.3477L16.0261 46.4053H30.0098L29.3299 51.913Z" fill="#E83828"/>
<path d="M87.961 61.4097L12.5969 61.3402C9.61872 61.3402 7.50016 58.938 7.86686 55.9743L9.30101 44.3486C9.67959 41.2756 12.49 38.7862 15.578 38.7862H24.9757L24.3581 43.7931H30.304L31.7664 31.9399L14.0192 32.0729C8.04799 32.0729 2.61277 36.8892 1.87936 42.8314L0.0814824 57.3956C-0.6445 63.2816 3.56145 68.0521 9.4762 68.0521L98 67.9649L87.961 61.4082V61.4097ZM92.9686 66.3664L93.8178 66.5762L92.9686 66.3664Z" fill="#E83828"/>
<defs>
<radialGradient id="paint0_radial_1065_630" cx="0" cy="0" r="1" gradientUnits="userSpaceOnUse" gradientTransform="translate(46.8712 47.7939) scale(40.5615 40.3641)">
<stop offset="0.71" stop-color="#30895E"/>
<stop offset="0.85" stop-color="#67BB71"/>
<stop offset="1" stop-color="#99C955"/>
</radialGradient>
<linearGradient id="paint1_linear_1065_630" x1="46.8741" y1="28.604" x2="46.8741" y2="0" gradientUnits="userSpaceOnUse">
<stop stop-color="#30895E"/>
<stop offset="0.24" stop-color="#469D65"/>
<stop offset="0.53" stop-color="#67BB71"/>
<stop offset="1" stop-color="#99C955"/>
</linearGradient>
</defs>
</svg>
