<svg width="129" height="43" viewBox="0 0 129 43" fill="none" xmlns="http://www.w3.org/2000/svg">
<g filter="url(#filter0_d_1087_621)">
<path d="M13.9368 27.8331C14.0181 25.1355 12.2943 25.4463 8.91176 26.0803C4.39083 26.9132 3.87043 27.2488 3.8867 32.3952C3.8867 36.0251 3.93548 37.0569 8.78166 36.4478C12.8147 35.9381 14.197 35.764 14.0994 32.4201L8.7654 33.1908V30.456L17.9211 28.9891C17.9211 33.8994 17.9211 34.3096 17.3682 35.6895C16.1322 38.7102 12.2781 39.1329 9.3671 39.4561C4.58598 39.9782 2.53692 39.8911 1.30099 38.4616C0.308984 37.3304 0 36.0997 0 32.5196C0 28.6286 0.48787 27.0748 1.83764 25.7944C3.31752 24.3897 5.0088 23.7806 8.5052 23.072C13.6278 22.0402 17.791 21.3441 17.8072 27.1742L13.9206 27.8331H13.9368Z" fill="#FF6C5F"/>
<path d="M39.5668 26.1922C39.6644 33.5887 38.5423 36.2365 30.9965 37.0569C24.02 37.8277 21.4343 37.231 21.3855 29.6108C21.3367 21.9905 22.719 20.2129 30.3786 18.6715C37.1274 17.3165 39.4692 18.1494 39.5668 26.1922ZM29.972 22.2019C25.5812 23.0099 25.2234 23.9049 25.2722 28.7282C25.321 34.0238 25.7763 34.2848 30.9965 33.6135C35.4849 33.0417 35.7777 32.1342 35.7126 27.0997C35.6476 21.456 35.1272 21.2447 29.972 22.1894V22.2019Z" fill="#FF6C5F"/>
<path d="M61.065 22.8235C61.2113 30.9534 60.1055 33.8498 52.5598 34.6827C45.5832 35.4534 42.9975 34.7697 42.8837 26.3042C42.7699 17.8387 44.1522 15.9119 51.8117 14.3704C58.5606 13.0155 60.9024 13.9727 61.065 22.8235V22.8235ZM51.4214 18.2614C47.0306 19.0694 46.6891 20.0514 46.7704 25.3968C46.8517 31.2642 47.307 31.5501 52.5273 30.8788C57.0157 30.307 57.3084 29.3125 57.2108 23.7683C57.097 17.5528 56.5766 17.3166 51.4214 18.2614V18.2614Z" fill="#FF6C5F"/>
<path d="M82.5636 19.4545C82.7587 28.3302 81.6692 31.4753 74.1397 32.3081C67.1632 33.0789 64.5612 32.2957 64.3986 23.0097C64.2359 13.7238 65.602 11.6229 73.2615 10.0815C80.0104 8.72651 82.3684 9.80801 82.5798 19.4545H82.5636ZM72.8875 14.308C68.4967 15.1161 68.1552 16.1851 68.269 22.0401C68.3991 28.467 68.8544 28.7902 74.0747 28.1313C78.5631 27.5595 78.8395 26.478 78.7094 20.4241C78.5631 13.6368 78.0264 13.3633 72.8875 14.308V14.308Z" fill="#FF6C5F"/>
<path d="M104.079 16.0858C104.34 25.695 103.266 29.0887 95.7205 29.9216C88.7439 30.6923 86.142 29.8097 85.898 19.6908C85.6541 9.57199 87.0201 7.30955 94.6797 5.78054C101.429 4.42556 103.787 5.64379 104.063 16.0858H104.079ZM94.3544 10.3676C89.9636 11.1756 89.6384 12.3317 89.7847 18.7088C89.9473 25.7075 90.419 26.0555 95.6229 25.3967C100.111 24.8248 100.388 23.6563 100.225 17.0928C100.03 9.7336 99.5096 9.42282 94.3544 10.38V10.3676Z" fill="#FF6C5F"/>
<path d="M113.071 2.34946L121.577 21.0084L120.991 0.770723L124.845 0L125.626 26.3537L119.934 26.9877L111.445 8.29149L111.982 27.8703L108.079 28.3054L107.412 3.48068L113.071 2.34946V2.34946Z" fill="#FF6C5F"/>
</g>
<defs>
<filter id="filter0_d_1087_621" x="0" y="0" width="128.626" height="42.749" filterUnits="userSpaceOnUse" color-interpolation-filters="sRGB">
<feFlood flood-opacity="0" result="BackgroundImageFix"/>
<feColorMatrix in="SourceAlpha" type="matrix" values="0 0 0 0 0 0 0 0 0 0 0 0 0 0 0 0 0 0 127 0" result="hardAlpha"/>
<feOffset dx="3" dy="3"/>
<feComposite in2="hardAlpha" operator="out"/>
<feColorMatrix type="matrix" values="0 0 0 0 1 0 0 0 0 1 0 0 0 0 1 0 0 0 0.85 0"/>
<feBlend mode="normal" in2="BackgroundImageFix" result="effect1_dropShadow_1087_621"/>
<feBlend mode="normal" in="SourceGraphic" in2="effect1_dropShadow_1087_621" result="shape"/>
</filter>
</defs>
</svg>
