<svg width="19" height="20" viewBox="0 0 19 20" fill="none" xmlns="http://www.w3.org/2000/svg">
<circle cx="9" cy="1" r="1" fill="white"/>
<circle cx="12" cy="4" r="1" fill="white"/>
<circle cx="15" cy="7" r="1" fill="white"/>
<circle cx="18" cy="10" r="1" fill="white"/>
<circle r="1" transform="matrix(1 0 0 -1 9 19)" fill="white"/>
<circle r="1" transform="matrix(1 0 0 -1 12 16)" fill="white"/>
<circle r="1" transform="matrix(1 0 0 -1 15 13)" fill="white"/>
<circle cx="1" cy="1" r="1" fill="white"/>
<circle cx="4" cy="4" r="1" fill="white"/>
<circle cx="7" cy="7" r="1" fill="white"/>
<circle cx="10" cy="10" r="1" fill="white"/>
<circle r="1" transform="matrix(1 0 0 -1 1 19)" fill="white"/>
<circle r="1" transform="matrix(1 0 0 -1 4 16)" fill="white"/>
<circle r="1" transform="matrix(1 0 0 -1 7 13)" fill="white"/>
</svg>
