<svg width="40" height="34" viewBox="0 0 40 34" fill="none" xmlns="http://www.w3.org/2000/svg">
<path d="M35.9049 8.83996C35.9293 9.19259 35.9293 9.54522 35.9293 9.9011C35.9293 20.7449 27.6742 33.2511 12.5793 33.2511V33.2446C8.12025 33.2511 3.75381 31.9738 0 29.5655C0.648385 29.6435 1.30002 29.6825 1.95328 29.6842C5.64859 29.6874 9.23827 28.4475 12.1454 26.1644C8.63376 26.0977 5.55434 23.8081 4.47857 20.4654C5.70871 20.7026 6.97623 20.6539 8.18363 20.324C4.35507 19.5505 1.60065 16.1867 1.60065 12.2801C1.60065 12.2444 1.60065 12.2103 1.60065 12.1761C2.74142 12.8115 4.01869 13.1642 5.32521 13.2032C1.71928 10.7932 0.607759 5.99617 2.78529 2.24561C6.95186 7.37257 13.0993 10.4894 19.6986 10.8192C19.0372 7.96895 19.9407 4.98215 22.0727 2.9785C25.378 -0.128552 30.5765 0.0307004 33.6835 3.33438C35.5214 2.972 37.283 2.29761 38.895 1.3421C38.2823 3.24175 37.0002 4.8554 35.2874 5.88079C36.9141 5.68904 38.5034 5.25353 40 4.5889C38.8982 6.23992 37.5105 7.67807 35.9049 8.83996Z" fill="#1D9BF0"/>
</svg>
