<svg width="310" height="310" viewBox="0 0 310 310" fill="none" xmlns="http://www.w3.org/2000/svg">
<path d="M304.719 195.117C295.887 228.075 276.428 257.198 249.358 277.97C222.288 298.741 189.121 310 155 310L155 305.344C188.096 305.344 220.267 294.424 246.524 274.276C272.781 254.129 291.656 225.88 300.222 193.912L304.719 195.117Z" fill="#9FC771"/>
<path d="M114.883 304.719C75.1752 294.079 41.3203 268.101 20.7661 232.5L24.7979 230.172C44.7348 264.704 77.5729 289.901 116.088 300.222L114.883 304.719Z" fill="#9FC771"/>
<path d="M264.602 45.3984C278.995 59.7915 290.412 76.8786 298.201 95.6841C305.991 114.49 310 134.645 310 155L305.344 155C305.344 135.257 301.456 115.706 293.9 97.4657C286.345 79.225 275.27 62.6512 261.31 48.6904L264.602 45.3984Z" fill="#9FC771"/>
<path d="M5.2815 195.117C-2.65289 165.505 -1.62825 134.206 8.22583 105.177C18.0799 76.1477 36.3208 50.6925 60.642 32.0302C84.9631 13.368 114.272 2.33688 144.863 0.331868C175.453 -1.67314 205.951 5.43801 232.5 20.7661L230.172 24.7979C204.421 9.93025 174.839 3.03269 145.167 4.97748C115.495 6.92226 87.0667 17.622 63.4761 35.7238C39.8855 53.8255 22.1924 78.5161 12.6343 106.673C3.07623 134.831 2.08238 165.19 9.77844 193.912L5.2815 195.117Z" fill="#9FC771"/>
</svg>
