<svg width="24" height="24" viewBox="0 0 24 24" fill="none" xmlns="http://www.w3.org/2000/svg">
<path d="M8.625 15.9H4.875L3.375 0.75H10.125L8.625 15.9Z" fill="#FF5A79"/>
<path d="M6.7498 23.25C8.34453 23.25 9.6373 21.9741 9.6373 20.4C9.6373 18.826 8.34453 17.55 6.7498 17.55C5.15508 17.55 3.8623 18.826 3.8623 20.4C3.8623 21.9741 5.15508 23.25 6.7498 23.25Z" fill="#FF5A79"/>
<path d="M19.125 15.9H15.375L13.875 0.75H20.625L19.125 15.9Z" fill="#FF5A79"/>
<path d="M17.2498 23.25C18.8445 23.25 20.1373 21.9741 20.1373 20.4C20.1373 18.826 18.8445 17.55 17.2498 17.55C15.6551 17.55 14.3623 18.826 14.3623 20.4C14.3623 21.9741 15.6551 23.25 17.2498 23.25Z" fill="#FF5A79"/>
</svg>
