<svg width="250" height="250" viewBox="0 0 250 250" fill="none" xmlns="http://www.w3.org/2000/svg">
<path d="M250 125C250 194.036 194.036 250 125 250C55.9644 250 0 194.036 0 125C0 55.9644 55.9644 0 125 0C194.036 0 250 55.9644 250 125ZM5 125C5 191.274 58.7258 245 125 245C191.274 245 245 191.274 245 125C245 58.7258 191.274 5 125 5C58.7258 5 5 58.7258 5 125Z" fill="#0D2E4F"/>
<path d="M233.253 187.5C244.224 168.498 250 146.942 250 125C250 103.058 244.224 81.5024 233.253 62.5L219.18 70.625C228.725 87.1571 233.75 105.91 233.75 125C233.75 144.09 228.725 162.843 219.18 179.375L233.253 187.5Z" fill="#0D2E4F"/>
<path d="M16.7468 62.5C5.77578 81.5024 -6.97462e-07 103.058 0 125C6.97462e-07 146.942 5.77578 168.498 16.7468 187.5L30.8197 179.375C21.2749 162.843 16.25 144.09 16.25 125C16.25 105.91 21.2749 87.1571 30.8197 70.625L16.7468 62.5Z" fill="#0D2E4F"/>
</svg>
